<svg width="36" height="36" viewBox="0 0 36 36" fill="none" xmlns="http://www.w3.org/2000/svg">
<path d="M18 0C8.05872 0 0 8.05872 0 18C0 27.9413 8.05872 36 18 36C27.9417 36 36 27.9413 36 18C36 8.05872 27.9417 0 18 0ZM18 32.2144C10.162 32.2144 3.78557 25.8376 3.78557 18C3.78557 10.1624 10.162 3.78557 18 3.78557C25.838 3.78557 32.2144 10.1624 32.2144 18C32.2144 25.8376 25.838 32.2144 18 32.2144Z" fill="#C4C4C4"/>
<path d="M29.4006 11.3232C29.306 11.1612 29.1148 11.0836 28.9346 11.1328L16.1458 14.6205C16.0754 14.6401 16.0114 14.6776 15.9596 14.7295L6.66108 24.1767C6.5301 24.3108 6.50435 24.5156 6.59899 24.6764C6.69363 24.8385 6.8848 24.9168 7.06538 24.8672L19.8542 21.3792C19.8894 21.3701 19.9231 21.3557 19.9545 21.3376C19.9859 21.319 20.0147 21.2967 20.0408 21.2702L29.3389 11.8225C29.4699 11.6897 29.4953 11.4845 29.4006 11.3232ZM10.1094 22.6213L16.3404 16.2899L18.6795 20.284L10.1094 22.6213Z" fill="#C4C4C4"/>
</svg>
