<svg width="34" height="30" viewBox="0 0 34 30" fill="none" xmlns="http://www.w3.org/2000/svg">
<path d="M32.7479 11.6511L28.5771 8.45705V3.34885C28.5771 2.77362 28.079 2.30556 27.4668 2.30556H24.8425C24.2303 2.30556 23.7322 2.77362 23.7322 3.34885V4.74656L18.1592 0.478677C17.7561 0.170055 17.2247 0 16.6631 0C16.1037 0 15.5749 0.169012 15.174 0.476022L0.585436 11.651C-0.0774115 12.1585 -0.0376427 12.6006 0.0450239 12.8189C0.127489 13.0368 0.393051 13.4023 1.24455 13.4023H3.24217V28.0981C3.24217 29.1469 4.14777 30 5.26089 30H11.5694C12.6731 30 13.5377 29.1645 13.5377 28.0981V22.0716C13.5377 21.5551 14.0428 21.0848 14.5975 21.0848H18.8368C19.3655 21.0848 19.7957 21.5275 19.7957 22.0716V28.0981C19.7957 29.129 20.7433 30 21.8649 30H28.0724C29.1856 30 30.0912 29.1468 30.0912 28.0981V13.4023H32.0888C32.9403 13.4023 33.2057 13.0368 33.2883 12.8189C33.371 12.6006 33.4107 12.1585 32.7479 11.6511Z" fill="url(#paint0_linear_556_3067)"/>
<defs>
<linearGradient id="paint0_linear_556_3067" x1="33.3333" y1="2.80367e-06" x2="-0.647695" y2="0.752524" gradientUnits="userSpaceOnUse">
<stop stop-color="#BA68C8"/>
<stop offset="1" stop-color="#F79240"/>
</linearGradient>
</defs>
</svg>
