<svg width="32" height="41" viewBox="0 0 32 41" fill="none" xmlns="http://www.w3.org/2000/svg">
<path d="M20.8593 26.05C23.431 26.05 25.1455 27.7898 25.1455 29.7499H30.289V2H25.1455C25.1455 3.85 23.431 5.69999 20.8593 5.69999C18.2876 5.69999 16.5731 3.85 16.5731 2H11.4297V14.95" stroke="#C4C4C4" stroke-width="3" stroke-linecap="round" stroke-linejoin="round"/>
<path d="M20.8593 38.9999H15.7158C15.7158 37.0398 14.0014 35.3 11.4296 35.3C8.85792 35.3 7.14344 37.0398 7.14344 38.9999H2V11.25H7.14344C7.14344 13.1 8.85792 14.95 11.4296 14.95C14.0014 14.95 15.7158 13.1 15.7158 11.25H20.8593V38.9999Z" stroke="#C4C4C4" stroke-width="3" stroke-linecap="round" stroke-linejoin="round"/>
<path d="M7.35792 20.4999C7.35792 20.6329 7.30864 20.7312 7.25557 20.7884C7.2043 20.8438 7.16402 20.8499 7.14344 20.8499C7.12285 20.8499 7.08257 20.8438 7.0313 20.7884C6.97824 20.7312 6.92896 20.6329 6.92896 20.4999C6.92896 20.3669 6.97824 20.2686 7.0313 20.2114C7.08257 20.156 7.12285 20.1499 7.14344 20.1499C7.16402 20.1499 7.2043 20.156 7.25557 20.2114C7.30864 20.2686 7.35792 20.3669 7.35792 20.4999Z" fill="#C4C4C4" stroke="#C4C4C4" stroke-width="3"/>
<path d="M11.6443 20.4999C11.6443 20.6329 11.595 20.7312 11.5419 20.7884C11.4907 20.8438 11.4504 20.8499 11.4298 20.8499C11.4092 20.8499 11.369 20.8438 11.3177 20.7884C11.2646 20.7312 11.2153 20.6329 11.2153 20.4999C11.2153 20.3669 11.2646 20.2686 11.3177 20.2114C11.369 20.156 11.4092 20.1499 11.4298 20.1499C11.4504 20.1499 11.4907 20.156 11.5419 20.2114C11.595 20.2686 11.6443 20.3669 11.6443 20.4999Z" fill="#C4C4C4" stroke="#C4C4C4" stroke-width="3"/>
<path d="M15.9304 20.4999C15.9304 20.6329 15.8812 20.7312 15.8281 20.7884C15.7768 20.8438 15.7365 20.8499 15.716 20.8499C15.6954 20.8499 15.6551 20.8438 15.6038 20.7884C15.5507 20.7312 15.5015 20.6329 15.5015 20.4999C15.5015 20.3669 15.5507 20.2686 15.6038 20.2114C15.6551 20.156 15.6954 20.1499 15.716 20.1499C15.7365 20.1499 15.7768 20.156 15.8281 20.2114C15.8812 20.2686 15.9304 20.3669 15.9304 20.4999Z" fill="#C4C4C4" stroke="#C4C4C4" stroke-width="3"/>
</svg>
