<svg width="36" height="36" viewBox="0 0 36 36" fill="none" xmlns="http://www.w3.org/2000/svg">
<path fill-rule="evenodd" clip-rule="evenodd" d="M24.5453 13.0904C24.5453 14.8263 23.8556 16.4912 22.6281 17.7187C21.4006 18.9462 19.7358 19.6358 17.9998 19.6358C16.2638 19.6358 14.599 18.9462 13.3715 17.7187C12.144 16.4912 11.4543 14.8263 11.4543 13.0904C11.4543 11.3544 12.144 9.68955 13.3715 8.46204C14.599 7.23453 16.2638 6.54492 17.9998 6.54492C19.7358 6.54492 21.4006 7.23453 22.6281 8.46204C23.8556 9.68955 24.5453 11.3544 24.5453 13.0904ZM21.2725 13.0904C21.2725 13.9584 20.9277 14.7908 20.314 15.4045C19.7002 16.0183 18.8678 16.3631 17.9998 16.3631C17.1318 16.3631 16.2994 16.0183 15.6856 15.4045C15.0719 14.7908 14.7271 13.9584 14.7271 13.0904C14.7271 12.2224 15.0719 11.39 15.6856 10.7762C16.2994 10.1625 17.1318 9.81765 17.9998 9.81765C18.8678 9.81765 19.7002 10.1625 20.314 10.7762C20.9277 11.39 21.2725 12.2224 21.2725 13.0904Z" fill="#C4C4C4"/>
<path fill-rule="evenodd" clip-rule="evenodd" d="M18 0C8.05909 0 0 8.05909 0 18C0 27.9409 8.05909 36 18 36C27.9409 36 36 27.9409 36 18C36 8.05909 27.9409 0 18 0ZM3.27273 18C3.27273 21.42 4.43945 24.5684 6.39491 27.0687C7.7682 25.2653 9.53984 23.8038 11.5714 22.7983C13.603 21.7929 15.8396 21.2708 18.1064 21.2727C20.3438 21.2706 22.5522 21.7792 24.5633 22.7598C26.5745 23.7404 28.3352 25.1671 29.7115 26.9313C31.1293 25.0717 32.0839 22.9013 32.4964 20.5995C32.9088 18.2978 32.7673 15.9309 32.0834 13.6947C31.3995 11.4585 30.1929 9.41735 28.5635 7.74006C26.9341 6.06277 24.9288 4.79759 22.7134 4.0492C20.4979 3.3008 18.1361 3.09072 15.8234 3.43632C13.5107 3.78192 11.3135 4.67328 9.41362 6.03663C7.51377 7.39999 5.96587 9.19615 4.89801 11.2765C3.83015 13.3569 3.27302 15.6616 3.27273 18ZM18 32.7273C14.6192 32.7323 11.3404 31.5693 8.71855 29.4349C9.77389 27.9241 11.1786 26.6906 12.813 25.8393C14.4475 24.988 16.2635 24.5441 18.1064 24.5455C19.9263 24.544 21.7203 24.9768 23.3393 25.8078C24.9584 26.6388 26.3559 27.8441 27.4156 29.3236C24.7734 31.5273 21.4406 32.7321 18 32.7273Z" fill="#C4C4C4"/>
</svg>
